<!DOCTYPE svg PUBLIC "-//W3C//DTD SVG 1.1//EN" "http://www.w3.org/Graphics/SVG/1.1/DTD/svg11.dtd">
<!-- Uploaded to: SVG Repo, www.svgrepo.com, Transformed by: SVG Repo Mixer Tools -->
<svg version="1.1" id="Layer_1" xmlns="http://www.w3.org/2000/svg" xmlns:xlink="http://www.w3.org/1999/xlink" viewBox="0 0 393.568 393.568" xml:space="preserve" width="800px" height="800px" fill="#000000">
<g id="SVGRepo_bgCarrier" stroke-width="0"/>
<g id="SVGRepo_tracerCarrier" stroke-linecap="round" stroke-linejoin="round"/>
<g id="SVGRepo_iconCarrier"> <circle style="fill:#94b3e5;" cx="196.784" cy="196.784" r="196.784"/> <g> <path style="fill:#886C60;" d="M147.329,92.057l7.24-30.707c1.034-3.685,3.426-6.012,6.012-6.012h72.081 c2.65,0,5.236,2.327,6.012,6.012l7.434,30.707h14.933l-8.275-34.133c-2.65-9.956-10.731-17.002-19.911-17.002h-72.21 c-9.438,0-17.584,7.046-19.911,17.002l-8.275,34.133H147.329z"/> <path style="fill:#886C60;" d="M356.848,95.354c0-4.461-3.685-8.145-8.404-8.145H45.059c-4.461,0-8.404,3.685-8.404,8.145V179.2 h320.194V95.354L356.848,95.354z"/> </g> <path style="fill:#74594E;" d="M39.046,179.2v127.871c0,4.461,3.685,8.145,8.145,8.145h298.925c4.461,0,8.145-3.685,8.145-8.145 V179.2H39.046z"/> <rect x="164.848" y="158.772" style="fill:#F1F3F7;" width="63.935" height="39.822"/> </g>
</svg>