<!DOCTYPE svg PUBLIC "-//W3C//DTD SVG 1.1//EN" "http://www.w3.org/Graphics/SVG/1.1/DTD/svg11.dtd">
<!-- Uploaded to: SVG Repo, www.svgrepo.com, Transformed by: SVG Repo Mixer Tools -->
<svg height="800px" width="800px" version="1.1" id="Layer_1" xmlns="http://www.w3.org/2000/svg" xmlns:xlink="http://www.w3.org/1999/xlink" viewBox="0 0 508 508" xml:space="preserve" fill="#000000">
<g id="SVGRepo_bgCarrier" stroke-width="0"/>
<g id="SVGRepo_tracerCarrier" stroke-linecap="round" stroke-linejoin="round"/>
<g id="SVGRepo_iconCarrier"> <circle style="fill:#92cbe2;" cx="254" cy="254" r="254"/> <polygon style="fill:#FFFFFF;" points="399.6,185.2 399.6,393.6 108.4,393.6 108.4,185.2 254,95.2 "/> <path style="fill:#324A5E;" d="M79.2,200.8c-4,0-8-2-10.4-5.6c-3.6-5.6-1.6-13.2,4-16.4L247.6,71.2c4-2.4,8.8-2.4,12.8,0 l174.8,107.6c5.6,3.6,7.6,10.8,4,16.4c-3.6,5.6-10.8,7.6-16.4,4L254,95.6L85.6,199.2C83.6,200.4,81.2,200.8,79.2,200.8z"/> <path style="fill:#FF7058;" d="M250,342v-14c-17.2-1.6-32.8-8.8-46.4-20.8l14-16.4c10.4,9.2,21.6,14.8,32.8,16.4v-36.8 c-14.4-3.6-24.8-8-31.2-13.6c-6.8-5.6-10-13.6-10-24.8c0-10.8,4-20,11.6-26.8s17.6-10.8,29.6-11.2v-9.6h12v9.6 c14,1.2,26.8,5.6,39.2,14l-12.4,17.6c-8.4-6-17.2-9.6-27.2-10.8v35.6h0.4c14.4,3.6,25.2,8,32,14s10.4,14.4,10.4,25.2 c0,11.2-4,20-11.6,26.8c-8,6.8-18,10.8-31.2,11.2V342H250z M236.4,219.6c-3.2,2.8-4.8,6.4-4.8,10.4c0,4.4,1.2,7.6,3.6,10 c2.4,2.4,7.2,4.8,14.4,7.2v-32.8C244,215.2,239.6,216.8,236.4,219.6z M276.4,302.8c3.6-2.8,5.2-6.4,5.2-10.8s-1.2-8-4-10.4 s-8-5.2-15.6-7.2v34C268,307.2,272.8,305.6,276.4,302.8z"/> </g>
</svg>